<?xml version="1.0" standalone="no"?>
<!DOCTYPE svg PUBLIC "-//W3C//DTD SVG 20010904//EN"
 "http://www.w3.org/TR/2001/REC-SVG-20010904/DTD/svg10.dtd">
<svg version="1.0" xmlns="http://www.w3.org/2000/svg"
 width="942.000000pt" height="342.000000pt" viewBox="0 0 942.000000 342.000000"
 preserveAspectRatio="xMidYMid meet">
<metadata>
Created by potrace 1.15, written by Peter Selinger 2001-2017
</metadata>
<g transform="translate(0.000000,342.000000) scale(0.100000,-0.100000)"
fill="#000000" stroke="none">
<path d="M1630 2804 c-25 -14 -53 -35 -63 -47 -33 -39 -82 -153 -247 -577 -90
-228 -200 -509 -245 -625 -123 -314 -138 -361 -130 -410 6 -46 59 -109 105
-127 13 -5 165 -12 337 -15 l313 -6 0 50 0 50 -79 5 c-88 5 -148 32 -196 90
-51 60 -58 91 -63 261 l-4 158 53 -3 54 -3 5 -141 c5 -132 7 -143 32 -181 15
-22 44 -51 65 -64 36 -23 47 -24 195 -24 l156 0 43 30 c23 17 53 50 66 74 21
40 23 57 23 178 l0 133 45 0 45 0 0 -158 c0 -150 -1 -161 -26 -210 -46 -93
-132 -142 -246 -142 l-58 0 0 -50 0 -50 303 0 c177 0 317 4 339 10 44 13 93
52 113 91 34 64 21 112 -120 459 -209 515 -350 863 -391 968 -73 187 -111 245
-185 283 -60 30 -180 27 -239 -7z m145 -154 c-19 -38 -35 -74 -35 -80 0 -6 27
-10 63 -10 35 0 66 -3 69 -6 3 -3 -16 -51 -43 -107 -66 -135 -83 -167 -86
-163 -2 1 5 48 16 103 l18 101 -69 9 -70 8 81 108 c45 59 84 107 86 107 3 0
-11 -31 -30 -70z m105 -570 c48 -24 80 -69 87 -120 l6 -40 -107 0 c-99 0 -106
-1 -106 -20 0 -18 7 -20 68 -22 37 -1 83 -2 102 -2 30 -1 35 -5 38 -28 l3 -28
-105 0 c-99 0 -106 -1 -106 -20 0 -19 7 -20 105 -20 l105 0 0 -25 0 -25 -105
0 c-98 0 -105 -1 -105 -20 0 -18 8 -20 103 -22 97 -3 102 -4 105 -25 3 -23 2
-23 -102 -23 l-106 0 0 -25 0 -25 105 0 c98 0 105 -1 105 -20 0 -19 -7 -20
-105 -20 l-105 0 0 -25 0 -25 105 0 c98 0 105 -1 105 -20 0 -19 -7 -20 -105
-20 l-105 0 0 -25 0 -25 105 0 c58 0 105 -2 105 -5 0 -24 -35 -78 -66 -101
-36 -28 -42 -29 -144 -29 -102 0 -108 1 -144 29 -65 49 -67 61 -64 396 3 285
4 300 24 327 39 52 89 73 182 73 63 0 92 -5 122 -20z"/>
<path d="M3203 2511 c-20 -20 -63 -117 -151 -342 -67 -173 -122 -326 -122
-341 0 -48 67 -86 106 -60 14 9 38 56 65 126 l20 56 154 0 153 0 32 -79 c17
-44 39 -86 49 -95 26 -24 68 -20 98 10 20 20 24 31 19 57 -4 18 -61 169 -129
336 -137 340 -149 361 -222 361 -35 0 -49 -6 -72 -29z m127 -286 c27 -77 50
-143 50 -147 0 -4 -47 -8 -105 -8 -58 0 -105 4 -105 9 0 5 20 64 44 132 54
153 58 161 62 156 2 -1 26 -66 54 -142z"/>
<path d="M3702 2524 c-16 -11 -22 -25 -22 -55 0 -40 140 -616 161 -662 27 -59
129 -63 159 -7 6 11 42 133 80 271 38 138 71 253 73 255 2 2 25 -76 51 -173
88 -327 94 -347 121 -370 45 -40 112 -27 139 26 17 32 166 630 166 665 0 58
-94 90 -125 42 -9 -13 -40 -130 -69 -260 -30 -131 -56 -239 -58 -242 -2 -2
-33 103 -69 234 -52 194 -69 242 -91 265 -49 51 -132 30 -159 -40 -5 -14 -34
-120 -65 -236 -31 -117 -60 -215 -63 -219 -4 -4 -26 81 -50 190 -53 244 -68
298 -87 317 -20 19 -64 19 -92 -1z"/>
<path d="M5580 2524 c-163 -57 -211 -226 -95 -333 43 -40 81 -54 267 -106 39
-10 64 -25 82 -46 30 -35 32 -58 11 -99 -22 -43 -69 -64 -142 -64 -77 -1 -106
18 -149 99 -35 64 -54 80 -89 71 -56 -14 -70 -68 -36 -141 24 -51 63 -88 126
-117 42 -19 66 -23 155 -23 88 1 113 4 158 24 115 52 172 181 127 289 -33 77
-85 110 -240 153 -164 44 -189 61 -183 120 5 51 45 74 128 74 59 0 72 -3 95
-25 15 -14 36 -42 46 -63 49 -94 156 -49 129 54 -24 90 -132 149 -268 149 -42
-1 -97 -8 -122 -16z"/>
<path d="M6349 2525 c-156 -50 -242 -183 -242 -375 0 -254 147 -400 392 -388
145 7 245 67 301 181 39 80 53 183 40 278 -20 138 -79 228 -187 281 -59 29
-77 33 -162 35 -64 2 -111 -2 -142 -12z m206 -124 c79 -37 122 -106 132 -214
15 -161 -61 -284 -185 -303 -100 -15 -196 53 -227 160 -35 119 2 284 73 334
63 44 142 53 207 23z"/>
<path d="M4772 2520 c-12 -5 -27 -21 -32 -35 -6 -15 -10 -160 -10 -345 0 -298
1 -319 19 -341 19 -24 20 -24 266 -27 276 -3 295 0 295 58 0 56 -13 60 -215
60 -101 0 -190 3 -199 6 -13 5 -16 25 -16 110 l0 104 179 0 c150 0 182 3 195
16 20 19 20 54 2 80 -13 17 -29 19 -193 21 l-178 3 -3 90 -3 90 188 0 c210 0
233 6 233 60 0 56 -19 60 -275 59 -126 0 -240 -4 -253 -9z"/>
<path d="M7020 2523 c-8 -3 -23 -12 -32 -21 -17 -14 -18 -44 -18 -359 0 -330
1 -344 20 -363 24 -24 72 -26 94 -4 9 8 17 16 18 17 1 1 5 126 8 277 l5 275
64 -255 c35 -140 70 -267 77 -282 17 -33 43 -48 84 -48 60 0 71 23 140 300 34
140 67 262 71 270 5 8 9 -108 9 -257 0 -259 1 -274 20 -293 26 -26 72 -26 96
1 18 20 19 41 19 365 0 394 5 374 -89 382 -82 7 -123 -4 -140 -36 -8 -15 -39
-124 -71 -242 -31 -118 -58 -216 -60 -218 -4 -5 -15 32 -75 258 -59 223 -57
217 -92 229 -32 11 -122 14 -148 4z"/>
<path d="M7893 2518 c-12 -6 -27 -24 -32 -41 -14 -39 -14 -599 -1 -648 6 -23
19 -40 36 -47 31 -15 471 -16 508 -2 33 12 43 52 22 85 l-16 25 -198 2 -197 3
-3 108 -3 107 176 0 c162 0 177 2 195 20 25 25 25 41 1 71 -19 24 -22 24 -195
24 l-176 0 0 93 0 92 188 0 c103 0 192 4 198 8 39 26 36 79 -6 102 -26 14
-468 12 -497 -2z"/>
<path d="M3028 1478 c-16 -12 -18 -37 -19 -231 -1 -230 2 -247 45 -247 38 0
46 19 46 106 l0 81 85 5 c57 4 95 12 117 25 92 53 87 205 -8 252 -41 21 -243
27 -266 9z m228 -93 c20 -27 17 -72 -6 -95 -16 -16 -33 -20 -85 -20 l-65 0 0
71 0 71 71 -4 c55 -3 74 -8 85 -23z"/>
<path d="M3560 1474 c-91 -39 -136 -126 -128 -248 10 -149 91 -226 237 -226
138 1 224 92 225 240 1 164 -79 250 -231 250 -38 -1 -84 -8 -103 -16z m157
-73 c56 -26 77 -67 77 -151 0 -113 -46 -170 -137 -170 -83 0 -127 60 -127 173
0 75 25 122 80 149 44 22 55 22 107 -1z"/>
<path d="M4010 1478 l-25 -14 -3 -213 c-2 -149 1 -218 9 -227 9 -11 42 -14
133 -14 107 0 126 3 161 23 75 42 111 125 103 237 -7 94 -46 163 -113 197 -40
22 -231 29 -265 11z m232 -94 c31 -28 48 -77 47 -136 -1 -115 -38 -157 -143
-165 l-66 -6 0 168 0 168 70 -5 c50 -4 77 -11 92 -24z"/>
<path d="M4585 1474 c-89 -49 -125 -113 -125 -229 0 -93 19 -143 71 -191 77
-71 218 -74 292 -5 52 47 72 112 45 139 -21 21 -48 13 -66 -20 -34 -65 -66
-88 -119 -88 -88 0 -127 51 -127 166 1 87 22 130 77 157 57 28 103 14 147 -46
27 -36 41 -47 62 -47 63 0 41 98 -33 147 -36 24 -55 28 -118 31 -55 2 -84 -2
-106 -14z"/>
<path d="M5108 1473 c-9 -10 -25 -40 -36 -68 -42 -99 -124 -311 -132 -337 -10
-33 12 -68 44 -68 19 0 28 10 45 49 11 27 21 54 21 60 0 7 36 11 100 11 l100
0 24 -54 c13 -29 29 -57 35 -61 19 -11 59 3 66 24 6 21 -146 414 -172 444 -9
9 -30 17 -48 17 -18 0 -39 -8 -47 -17z"/>
<path d="M5515 1470 c-97 -48 -100 -165 -6 -218 20 -11 67 -28 104 -38 47 -11
74 -24 87 -42 26 -32 25 -38 -9 -73 -22 -22 -39 -29 -68 -29 -48 0 -78 20
-103 71 -37 71 -105 40 -80 -36 25 -76 109 -115 220 -102 96 11 150 65 150
147 0 80 -47 120 -183 154 -91 23 -117 56 -77 96 14 14 33 20 65 20 46 0 49
-2 99 -65 21 -27 26 -28 50 -17 52 23 24 102 -48 136 -49 23 -151 21 -201 -4z"/>
<path d="M5868 1479 c-10 -5 -18 -21 -18 -35 0 -29 32 -45 73 -37 15 3 38 2
51 -1 l25 -6 3 -190 c2 -156 6 -192 18 -200 25 -16 59 -11 70 9 6 12 10 95 10
199 0 199 -2 193 66 187 54 -5 84 9 84 39 0 14 -8 30 -18 35 -24 13 -342 13
-364 0z"/>
<path d="M1563 853 c-30 -6 -78 -55 -80 -82 -2 -20 2 -21 100 -21 56 0 173 -3
259 -7 176 -7 184 -4 153 57 -27 52 -63 60 -247 59 -90 -1 -173 -4 -185 -6z"/>
</g>
</svg>
